<svg id="OBJECTS" xmlns="http://www.w3.org/2000/svg" width="500" height="500" viewBox="0 0 500 500">
  <defs>
    <style>
      .cls-1 {
        fill: #bfb6fe;
      }

      .cls-2 {
        fill: #fff;
      }

      .cls-3 {
        fill: #e8e8f7;
      }

      .cls-4 {
        fill: #473a51;
      }

      .cls-5 {
        fill: #5f7091;
      }

      .cls-6 {
        fill: #eca87b;
      }

      .cls-7 {
        fill: #7573ed;
      }

      .cls-8 {
        fill: #4f3b4d;
      }

      .cls-9 {
        fill: #697a9e;
      }

      .cls-10 {
        fill: #5858bc;
      }

      .cls-11 {
        fill: #9a95e5;
      }
    </style>
  </defs>
  <g>
    <path class="cls-1" d="M258.47806,281.483s3.61339,35.84224,33.52788,44.7364c29.91438,8.894,46.08437,3.23455,63.87137-15.36084,0,0-4.851,36.38238-25.06349,50.12688,0,0,47.70148-5.80027,63.063-55.45251,0,0,46.08448-3.2984,48.51-45.87942,0,0,44.46747-15.09192,50.127-55.51691s-13.7445-52.55248-39.61649-67.914c0,0,10.36874-23.19415-18.98038-46.23458-20.57181-12.0688-44.89109.95859-44.89109.95859s-11.319-39.61648-66.297-41.23348c-16.97849,0-44.13756,16.97849-46.728,35.574,0,0-32.263-19.404-61.89418,1.617s-21.09461,59.829-11.21421,77.616c0,0-31.72591,30.723-14.561,74.382C205.49648,282.56109,258.47806,281.483,258.47806,281.483Z"/>
    <path class="cls-2" d="M348.14362,233.99329H307.9079v-4.02363q0-10.26863,2.32983-16.67633a36.93794,36.93794,0,0,1,6.93506-11.70026q4.60578-5.29371,20.70007-18.63609,8.57729-6.98832,8.577-12.81169,0-5.82231-3.44125-9.05313-3.44192-3.2288-10.42986-3.2295a16.767,16.767,0,0,0-12.44084,4.97684q-4.92454,4.97822-6.3,17.36492l-41.08339-5.08228q2.11659-22.6583,16.46524-36.4774,14.34579-13.81718,43.99427-13.81756,23.08258,0,37.27152,9.635,19.2702,13.02376,19.27058,34.73005a33.51082,33.51082,0,0,1-4.97608,17.365q-4.97821,8.36631-20.33,20.43544-10.69618,8.47295-13.50037,13.60658Q348.143,225.73577,348.14362,233.99329Zm-22.60628,10.69438h5.08305a19.00611,19.00611,0,0,1,19.00616,19.006h0a19.0062,19.0062,0,0,1-19.00616,19.00617h-5.08305a19.00611,19.00611,0,0,1-19.006-19.00617h0A19.006,19.006,0,0,1,325.53734,244.68767Z"/>
  </g>
  <g>
    <path class="cls-3" d="M210.06781,428.96307s-30.59758-.00549-54.73518,0-27.42908,12.51293-14.26312,14.21364,40.595,9.92944,27.42909,13.76951-15.90887,16.45745,5.48581,17.006,129.46528,1.09717,147.0199,0,8.5469-15.90887-12.73258-15.36029-11.45462-6.50606,22.03366-6.81876c33.48829-.3128,57.62589-19.28231,18.128-20.4949S210.06781,428.96307,210.06781,428.96307Z"/>
    <path class="cls-4" d="M219.01825,441.01683s-9.54225-2.156-13.58475,0c-4.0425,2.15593-.87992,11.26151,20.581,8.05625Z"/>
    <path class="cls-4" d="M269.46461,441.01683s9.54236-2.156,13.58486,0c4.0425,2.15593.87981,11.26151-20.58114,8.05625Z"/>
    <path class="cls-5" d="M204.89446,420.80434s-9.43242-2.15614-7.81542,9.43242c1.617,7.54607,28.93549,18.83632,28.93549,18.83632V426.332Z"/>
    <path class="cls-6" d="M238.58177,369.70275v6.64672s5.21811,6.583,11.4354,0v-6.64672S242.37312,362.94993,238.58177,369.70275Z"/>
    <path class="cls-5" d="M285.3398,420.80434s9.43253-2.15614,7.81553,9.43242c-1.617,7.54607-28.93549,18.83632-28.93549,18.83632V426.332Z"/>
    <path class="cls-7" d="M263.40783,379.84021l-9.13037-3.39122a27.95878,27.95878,0,0,0-19.46928,0l-9.13026,3.39122s-13.20557,7.2765-2.4255,44.73706c0,0,6.468,5.65949,21.29034,5.65949,14.82257,0,21.29057-5.65949,21.29057-5.65949C276.6134,387.11671,263.40783,379.84021,263.40783,379.84021Z"/>
    <path class="cls-8" d="M238.18932,331.14579s-6.64092-1.95328-9.76608,2.34387c-3.12516,4.297,0,9.96137,0,9.96137s-4.883.97658-5.66433,7.03161c-.78128,6.05492,3.71116,8.0082,3.71116,8.0082a8.48707,8.48707,0,0,0,.39059,8.98478c1.95328,2.73446,8.3989,0,8.3989,0a4.31655,4.31655,0,0,0,2.92976,3.51575c2.73456.97658,5.27373-2.14847,5.27373-2.14847s3.32045,4.47983,9.96136,2.33751c6.64091-2.14221,5.66433-7.61124,5.66433-7.61124s4.883.97658,7.2269-2.92987c2.34387-3.90634-1.75787-8.59408-1.75787-8.59408a13.44893,13.44893,0,0,0,0-11.13336c-2.73457-5.85962-7.03161-3.71115-7.03161-3.71115s.586-5.66433-2.92976-7.6175c-3.51586-1.95317-7.6176,2.53917-7.6176,2.53917s.19529-5.72445-4.10175-5.66433C238.33337,326.52169,238.18932,331.14579,238.18932,331.14579Z"/>
    <path class="cls-9" d="M223.25242,424.57727s-1.31561,12.39706,0,20.48206c1.3155,8.085,20.98906,8.8935,30.42149,8.35446,9.43253-.539,16.23374-4.31207,12.15942-28.83652C265.83333,424.57727,244.85337,435.22644,223.25242,424.57727Z"/>
    <path class="cls-10" d="M225.227,395.89785c.29257,2.55026.5325,5.10128.77057,7.65249l.66568,7.65592.57258,7.66366c.16962,2.55683.34659,5.11334.44553,7.679-.40909-2.53443-.7299-5.079-1.02008-7.62674-.29448-2.54746-.50624-5.10266-.74472-7.65555-.17539-2.558-.3738-5.11432-.49187-7.67615C225.30617,401.02886,225.21068,398.46544,225.227,395.89785Z"/>
    <path class="cls-10" d="M263.6955,395.82588c.01633,2.5676-.07916,5.13105-.19763,7.69263-.118,2.56183-.31647,5.11817-.49182,7.67618-.2385,2.55289-.45023,5.10809-.74472,7.65555-.29016,2.54776-.611,5.09234-1.02,7.62677.0989-2.56562.27588-5.12213.44549-7.679l.57257-7.66366.66565-7.656C263.163,400.92717,263.403,398.37612,263.6955,395.82588Z"/>
    <ellipse class="cls-3" cx="128.635" cy="456.80008" rx="11.3374" ry="3.25474"/>
    <ellipse class="cls-3" cx="388.11416" cy="450.2171" rx="14.81171" ry="3.32825"/>
    <path class="cls-3" d="M355.01637,468.10075c0,.606-2.12861,1.09716-4.75434,1.09716-2.62585,0-4.75445-.4912-4.75445-1.09716s2.1286-1.09716,4.75445-1.09716C352.88776,467.00359,355.01637,467.49479,355.01637,468.10075Z"/>
    <ellipse class="cls-3" cx="108.52029" cy="433.74253" rx="5.48582" ry="1.1168"/>
    <path class="cls-3" d="M99.01161,458.4275c0,.8988-2.04675,1.62731-4.57154,1.62731s-4.57156-.72851-4.57156-1.62731,2.04676-1.62742,4.57156-1.62742S99.01161,457.5287,99.01161,458.4275Z"/>
  </g>
  <g>
    <circle class="cls-3" cx="42.05051" cy="84.24113" r="5.76011"/>
    <circle class="cls-3" cx="187.83105" cy="38.53901" r="8.80748"/>
    <circle class="cls-3" cx="214.67809" cy="298.53656" r="7.00857"/>
    <circle class="cls-3" cx="431.81781" cy="349.1091" r="3.29149"/>
    <path class="cls-3" d="M94.18574,354.12851a4.31718,4.31718,0,1,1-4.31723-4.31722A4.31711,4.31711,0,0,1,94.18574,354.12851Z"/>
    <path class="cls-3" d="M411.56021,29.73153A4.31717,4.31717,0,1,1,407.243,25.4143,4.31721,4.31721,0,0,1,411.56021,29.73153Z"/>
  </g>
  <g>
    <path class="cls-11" d="M177.8834,96.89691,39.08576,133.85255A43.68959,43.68959,0,0,0,8.108,187.31217L33.48935,282.639a43.68692,43.68692,0,0,0,50.93679,31.56386c12.255,17.45675,34.16413,25.92213,31.91254,22.78676A58.3972,58.3972,0,0,1,105.647,308.63836L225.7466,276.66121a43.68969,43.68969,0,0,0,30.97764-53.45973L231.3429,127.87466A43.68947,43.68947,0,0,0,177.8834,96.89691Z"/>
    <path class="cls-2" d="M151.997,230.89249l-30.64135,9.25764-.92579-3.06415a39.53123,39.53123,0,0,1-2.06267-13.23585,29.38312,29.38312,0,0,1,2.58931-10.506q2.28955-5.091,11.47611-18.95493,4.92423-7.29541,3.5841-11.7301a9.40113,9.40113,0,0,0-4.70365-6.10275q-3.36406-1.66681-8.68591-.05958a13.33919,13.33919,0,0,0-8.32923,6.65254q-2.60472,4.92424-.80235,14.67369l-32.45629,5.58225Q77.43793,185.663,85.1856,171.83767q7.74587-13.82311,30.32439-20.64511,17.57836-5.31081,30.60087-1.23815,17.67168,5.48445,22.6663,22.0147a26.65951,26.65951,0,0,1,.20583,14.36911q-1.86612,7.51694-10.78029,20.24025-6.19606,8.91352-7.15043,13.46823Q150.09659,224.60426,151.997,230.89249Zm-14.75509,13.34567,3.871-1.16957a15.12008,15.12008,0,0,1,18.847,10.101h0a15.12021,15.12021,0,0,1-10.101,18.84708l-3.87091,1.16946a15.12019,15.12019,0,0,1-18.84707-10.101h0A15.12008,15.12008,0,0,1,137.24194,244.23816Z"/>
  </g>
</svg>
